# xmcd
#
# Track frame offsets: 
#        150
#        10896
#        32411
#        57261
#        74863
#        99881
#        125886
#        141811
#        152708
#        170038
#        193966
#        216261
#        234368
#
# Disc length: 3317 seconds
#
# Revision: 0
# Processed by: cddbd v1.5.2PL0 Copyright (c) Steve Scherf et al.
# Submitted via: ExactAudioCopy v0.95b3
#
DISCID=bf0cf30d
DTITLE=James Taylor  - Hourglass  FLAC
DYEAR=1900
DGENRE=
TTITLE0=Back Home
TTITLE1=Line 'Em Up
TTITLE2=Enough To Be On Your Way
TTITLE3=Little More Time With You
TTITLE4=Gaia
TTITLE5=Ananas
TTITLE6=Jump Up Behind Me
TTITLE7=Another Day
TTITLE8=Up Er Mei
TTITLE9=Up From Your Life
TTITLE10=Yellow And Rose
TTITLE11=Boatman
TTITLE12=Walking My Baby
EXTD=
EXTT0=
EXTT1=
EXTT2=
EXTT3=
EXTT4=
EXTT5=
EXTT6=
EXTT7=
EXTT8=
EXTT9=
EXTT10=
EXTT11=
EXTT12=
PLAYORDER=
